<svg  viewBox="0 0 868 93" fill="none" xmlns="http://www.w3.org/2000/svg">
<path d="M0.573374 22.4066C0.0738719 22.6422 -0.140047 23.2382 0.0955721 23.7377C0.331191 24.2372 0.927125 24.4511 1.42663 24.2155L0.573374 22.4066ZM201.338 24.2522C201.858 24.0656 202.128 23.493 201.941 22.9732L198.9 14.5024C198.714 13.9826 198.141 13.7125 197.621 13.8991C197.102 14.0857 196.831 14.6583 197.018 15.1781L199.721 22.7077L192.191 25.4105C191.672 25.5971 191.401 26.1698 191.588 26.6896C191.775 27.2094 192.347 27.4795 192.867 27.2929L201.338 24.2522ZM1.42663 24.2155C31.6324 9.96714 65.3844 2 101 2V0C65.0833 0 31.0404 8.03505 0.573374 22.4066L1.42663 24.2155ZM101 2C136.616 2 170.368 9.96714 200.573 24.2155L201.427 22.4066C170.96 8.03505 136.917 0 101 0V2Z" fill="#808080"/>
<path d="M333.573 69.9039C333.074 69.6683 332.86 69.0724 333.096 68.5729C333.331 68.0734 333.927 67.8595 334.427 68.0951L333.573 69.9039ZM534.338 68.0583C534.858 68.2449 535.128 68.8176 534.941 69.3374L531.9 77.8081C531.714 78.328 531.141 78.5981 530.621 78.4115C530.102 78.2249 529.831 77.6522 530.018 77.1324L532.721 69.6029L525.191 66.9C524.672 66.7134 524.401 66.1408 524.588 65.6209C524.775 65.1011 525.347 64.831 525.867 65.0176L534.338 68.0583ZM334.427 68.0951C364.632 82.3434 398.384 90.3105 434 90.3105V92.3105C398.083 92.3105 364.04 84.2755 333.573 69.9039L334.427 68.0951ZM434 90.3105C469.616 90.3105 503.368 82.3434 533.573 68.0951L534.427 69.9039C503.96 84.2755 469.917 92.3105 434 92.3105V90.3105Z" fill="#808080"/>
<path d="M666.573 22.4066C666.074 22.6422 665.86 23.2382 666.096 23.7377C666.331 24.2372 666.927 24.4511 667.427 24.2155L666.573 22.4066ZM867.338 24.2522C867.858 24.0656 868.128 23.493 867.941 22.9732L864.9 14.5024C864.714 13.9826 864.141 13.7125 863.621 13.8991C863.102 14.0857 862.831 14.6583 863.018 15.1781L865.721 22.7077L858.191 25.4105C857.672 25.5971 857.401 26.1698 857.588 26.6896C857.775 27.2094 858.347 27.4795 858.867 27.2929L867.338 24.2522ZM667.427 24.2155C697.632 9.96714 731.384 2 767 2V0C731.083 0 697.04 8.03505 666.573 22.4066L667.427 24.2155ZM767 2C802.616 2 836.368 9.96714 866.573 24.2155L867.427 22.4066C836.96 8.03505 802.917 0 767 0V2Z" fill="#808080"/>
</svg>
